<?xml version="1.0" encoding="UTF-8"?>
<svg width="98px" height="24px" viewBox="0 0 98 24" version="1.1" xmlns="http://www.w3.org/2000/svg" xmlns:xlink="http://www.w3.org/1999/xlink">
    <!-- Generator: Sketch 51.3 (57544) - http://www.bohemiancoding.com/sketch -->
    <title>Eat-out tag</title>
    <desc>Created with Sketch.</desc>
    <defs>
        <path d="M4.46519728,0.43008 C2.38719728,0.43008 0.686530612,2.87904 0.686530612,5.87232 L0.686530612,7.49472 L97.6865306,7.49472 L97.6865306,5.87232 C97.6865306,2.87904 95.9851973,0.43008 93.9065306,0.43008 L4.46519728,0.43008 Z" id="path-1"></path>
    </defs>
    <g id="Eat-out-tag" stroke="none" stroke-width="1" fill="none" fill-rule="evenodd">
        <g>
            <path d="M3.81829553,24 C1.71819931,24 0,21.5619624 0,18.5820325 L0,5.41796751 C0,2.43803759 1.71819931,0 3.81829553,0 L94.1810309,0 C96.2811271,0 98,2.43803759 98,5.41796751 L98,18.5820325 C98,21.5619624 96.2811271,24 94.1810309,24 L3.81829553,24 Z" id="Fill-1" fill="#BEE74C"></path>
            <g id="Group-13">
                <mask id="mask-2" fill="white">
                    <use xlink:href="#path-1"></use>
                </mask>
                <g id="Clip-4"></g>
                <polygon id="Fill-3" fill="#00B49C" mask="url(#mask-2)" points="-9.46844082 302.4 23.1876898 302.4 23.1876898 -22.8192 -9.46844082 -22.8192"></polygon>
                <polygon id="Fill-6" fill="#F27B7C" mask="url(#mask-2)" points="17.6130612 302.4 40.3263347 302.4 40.3263347 -22.8192 17.6130612 -22.8192"></polygon>
                <polygon id="Fill-9" fill="#6DBF67" mask="url(#mask-2)" points="40.3490612 302.4 46.9113469 302.4 46.9113469 -22.8192 40.3490612 -22.8192"></polygon>
                <polygon id="Fill-10" fill="#00B49C" mask="url(#mask-2)" points="46.6253714 302.4 79.281502 302.4 79.281502 -22.8192 46.6253714 -22.8192"></polygon>
                <polygon id="Fill-11" fill="#F27B7C" mask="url(#mask-2)" points="78.3516082 302.4 86.9289796 302.4 86.9289796 -22.8192 78.3516082 -22.8192"></polygon>
                <polygon id="Fill-12" fill="#6DBF67" mask="url(#mask-2)" points="86.2254041 302.4 103.705894 302.4 103.705894 -22.8192 86.2254041 -22.8192"></polygon>
            </g>
            <g id="Group" transform="translate(10.000000, 11.000000)" fill="#000000">
                <path d="M2.892,7.92 C3.684,7.92 4.332,7.668 4.332,6.768 C4.332,6.012 3.648,5.796 2.808,5.568 C1.62,5.244 0.516,4.764 0.516,3.228 C0.516,1.764 1.644,0.876 3.3,0.876 C4.092,0.876 4.836,1.032 5.556,1.368 L5.556,3.168 L4.332,3.252 L4.332,2.556 C4.332,2.328 4.296,2.232 4.08,2.16 C3.852,2.088 3.54,2.064 3.3,2.064 C2.592,2.064 2.04,2.352 2.04,3.096 C2.04,3.84 2.736,4.044 3.636,4.32 C4.728,4.668 5.88,5.16 5.88,6.708 C5.88,8.292 4.632,9.156 2.976,9.156 C2.016,9.156 1.272,9 0.552,8.664 L0.552,6.768 L1.776,6.684 L1.776,7.416 C1.776,7.644 1.812,7.74 2.028,7.812 C2.256,7.884 2.568,7.92 2.892,7.92 Z M9.0093333,2.424 L9.0093333,6.408 C9.0093333,7.584 9.6213333,7.932 10.5813333,7.932 C11.5413333,7.932 12.1413333,7.452 12.1413333,6.468 L12.1413333,2.076 L11.4453333,2.04 L11.4453333,1.02 L14.2893333,1.02 L14.2893333,1.992 L13.8933333,2.028 C13.6773333,2.052 13.5453333,2.148 13.5453333,2.388 L13.5453333,6.672 C13.5453333,8.244 12.3573333,9.156 10.5333333,9.156 C8.5653333,9.156 7.5573333,8.364 7.5573333,6.48 L7.5573333,2.076 L6.8613333,2.04 L6.8613333,1.02 L9.7653333,1.02 L9.7653333,1.992 L9.3693333,2.028 C9.1413333,2.052 9.0093333,2.124 9.0093333,2.424 Z M15.2226666,9 L15.2226666,8.028 L15.6186666,7.992 C15.8226666,7.968 15.9666666,7.896 15.9666666,7.656 L15.9666666,2.076 L15.2826666,2.04 L15.2826666,1.02 L18.7146666,1.02 C20.4786666,1.02 21.5586666,1.86 21.5586666,3.468 C21.5586666,5.292 20.2626666,6.204 18.4506666,6.204 L17.4306666,6.204 L17.4306666,7.944 L18.5826666,7.98 L18.5826666,9 L15.2226666,9 Z M17.4306666,5.04 L18.2946666,5.04 C19.3386666,5.04 20.0466666,4.68 20.0466666,3.612 C20.0466666,2.376 19.3386666,2.184 18.1626666,2.184 L17.4306666,2.184 L17.4306666,5.04 Z M28.3599999,9 L22.6599999,9 L22.6599999,8.028 L23.0559999,7.992 C23.2599999,7.968 23.4039999,7.896 23.4039999,7.656 L23.4039999,2.076 L22.7199999,2.04 L22.7199999,1.02 L28.2159999,1.02 L28.2159999,3.012 L26.9919999,3.096 L26.9919999,2.616 C26.9919999,2.388 26.9679999,2.244 26.6439999,2.244 L24.8679999,2.244 L24.8679999,4.296 L27.6399999,4.296 L27.6399999,5.52 L24.8679999,5.52 L24.8679999,7.764 L26.7999999,7.764 C27.1119999,7.764 27.1359999,7.62 27.1359999,7.38 L27.1359999,6.78 L28.3599999,6.864 L28.3599999,9 Z" id="SUPE"></path>
                <path d="M45.892,7.92 C46.684,7.92 47.332,7.668 47.332,6.768 C47.332,6.012 46.648,5.796 45.808,5.568 C44.62,5.244 43.516,4.764 43.516,3.228 C43.516,1.764 44.644,0.876 46.3,0.876 C47.092,0.876 47.836,1.032 48.556,1.368 L48.556,3.168 L47.332,3.252 L47.332,2.556 C47.332,2.328 47.296,2.232 47.08,2.16 C46.852,2.088 46.54,2.064 46.3,2.064 C45.592,2.064 45.04,2.352 45.04,3.096 C45.04,3.84 45.736,4.044 46.636,4.32 C47.728,4.668 48.88,5.16 48.88,6.708 C48.88,8.292 47.632,9.156 45.976,9.156 C45.016,9.156 44.272,9 43.552,8.664 L43.552,6.768 L44.776,6.684 L44.776,7.416 C44.776,7.644 44.812,7.74 45.028,7.812 C45.256,7.884 45.568,7.92 45.892,7.92 Z M50.2933333,7.656 L52.2253333,2.064 L51.4693333,1.992 L51.4693333,1.02 L54.2173333,1.02 L56.6653333,7.944 L56.6773333,7.944 L57.3613333,7.98 L57.3613333,9 L54.2653333,9 L54.2653333,8.028 L54.7213333,7.992 C54.9733333,7.968 55.0933333,7.896 55.0093333,7.632 L54.7573333,6.888 L51.9493333,6.888 L51.5893333,7.944 L52.3093333,7.98 L52.3093333,9 L49.5373333,9 L49.5373333,8.028 L49.9333333,7.992 C50.1373333,7.968 50.2093333,7.884 50.2933333,7.656 Z M53.3533333,2.364 L52.2373333,5.784 L54.4693333,5.784 L53.3893333,2.364 L53.3533333,2.364 Z M58.9666666,2.448 L60.5746666,7.284 L60.6346666,7.284 L62.3146666,2.088 L61.5826666,2.04 L61.5826666,1.02 L64.3426666,1.02 L64.3426666,1.992 L63.9466666,2.028 C63.7306666,2.052 63.6586666,2.148 63.5746666,2.388 L61.3066666,9 L59.7466666,9 L57.2986666,2.076 L56.6146666,2.04 L56.6146666,1.02 L59.7106666,1.02 L59.7106666,1.992 L59.3146666,2.028 C59.0506666,2.052 58.8826666,2.16 58.9666666,2.448 Z M70.8439999,9 L65.1439999,9 L65.1439999,8.028 L65.5399999,7.992 C65.7439999,7.968 65.8879999,7.896 65.8879999,7.656 L65.8879999,2.076 L65.2039999,2.04 L65.2039999,1.02 L70.6999999,1.02 L70.6999999,3.012 L69.4759999,3.096 L69.4759999,2.616 C69.4759999,2.388 69.4519999,2.244 69.1279999,2.244 L67.3519999,2.244 L67.3519999,4.296 L70.1239999,4.296 L70.1239999,5.52 L67.3519999,5.52 L67.3519999,7.764 L69.2839999,7.764 C69.5959999,7.764 69.6199999,7.62 69.6199999,7.38 L69.6199999,6.78 L70.8439999,6.864 L70.8439999,9 Z" id="SAVE"></path>
                <path d="M30.5227735,1 L35.7073934,1 C35.4019916,1.47868062 35.2295319,1.72873393 35.1900093,1.76088413 L33.8049289,1.76088413 C33.995356,1.98236324 34.1247007,2.2520636 34.192967,2.5699933 L35.6696675,2.5699933 C35.6876323,2.57356555 35.6966146,2.58070993 35.6966146,2.59142666 C35.366062,3.0843963 35.1971952,3.33087743 35.1900093,3.33087743 L34.2306929,3.33087743 C34.2091352,3.58450674 34.0869763,3.889929 33.8642125,4.24715338 C33.5695896,4.60795001 33.2875462,4.84192847 33.018074,4.94909578 C32.5150591,5.18843612 32.0336093,5.30810449 31.57371,5.30810449 C31.57371,5.3545436 31.6868866,5.5027895 31.9132433,5.7635633 L34.4732167,8.83389149 L34.4732167,8.97856664 C34.4732167,8.99285562 34.4642345,9 34.4462697,9 L33.3198813,9 C31.2934501,6.65303582 30.2802497,5.47421305 30.2802497,5.46349632 L30.2802497,4.75083724 L30.2910286,4.72404555 C30.4706767,4.74905125 30.6808619,4.76155392 30.9215904,4.76155392 C32.0569668,4.76155392 32.7629735,4.39540442 33.0396316,3.66309444 C33.0827472,3.55592713 33.1043046,3.44518923 33.1043046,3.33087743 L30.0215577,3.33087743 C30.0071858,3.33087743 30,3.32373305 30,3.30944407 C30.3413315,2.81647443 30.5155876,2.5699933 30.5227735,2.5699933 L32.9695692,2.5699933 C32.8294436,2.27706936 32.558179,2.05737967 32.1557671,1.90020094 C31.8683301,1.8073226 31.6096406,1.76088413 31.3796909,1.76088413 L30.0107788,1.76088413 L30.0107788,1.73409243 C30.3413314,1.24469503 30.5119946,1 30.5227735,1 Z" id="`" stroke="#000000" stroke-width="0.3"></path>
                <path d="M72.5227735,1 L77.7073934,1 L77.7073934,1.01071668 C77.4019916,1.47868062 77.2295319,1.72873393 77.1900093,1.76088413 L75.8049289,1.76088413 C75.995356,1.98236324 76.1247007,2.2520636 76.192967,2.5699933 L77.6696675,2.5699933 C77.6876323,2.57356555 77.6966146,2.58070993 77.6966146,2.59142666 C77.366062,3.0843963 77.1971952,3.33087743 77.1900093,3.33087743 L76.2306929,3.33087743 C76.2091352,3.58450674 76.0869763,3.889929 75.8642125,4.24715338 C75.5695896,4.60795001 75.2875462,4.84192847 75.018074,4.94909578 C74.5150591,5.18843612 74.0336093,5.30810449 73.57371,5.30810449 L73.57371,5.31882117 C73.57371,5.3545436 73.6868866,5.5027895 73.9132433,5.7635633 L76.4732167,8.83389149 L76.4732167,8.97856664 C76.4732167,8.99285562 76.4642345,9 76.4462697,9 L75.3198813,9 C73.2934501,6.65303582 72.2802497,5.47421305 72.2802497,5.46349632 L72.2802497,4.75083724 L72.2910286,4.72404555 C72.4706767,4.74905125 72.6808619,4.76155392 72.9215904,4.76155392 C74.0569668,4.76155392 74.7629735,4.39540442 75.0396316,3.66309444 C75.0827472,3.55592713 75.1043046,3.44518923 75.1043046,3.33087743 L72.0215577,3.33087743 C72.0071858,3.33087743 72,3.32373305 72,3.30944407 C72.3413315,2.81647443 72.5155876,2.5699933 72.5227735,2.5699933 L74.9695692,2.5699933 L74.9695692,2.55927662 C74.8294436,2.27706936 74.558179,2.05737967 74.1557671,1.90020094 C73.8683301,1.8073226 73.6096406,1.76088413 73.3796909,1.76088413 L72.0107788,1.76088413 L72.0107788,1.73409243 C72.3413314,1.24469503 72.5119946,1 72.5227735,1 Z" id="`" stroke="#000000" stroke-width="0.3"></path>
            </g>
        </g>
    </g>
</svg>