<?xml version="1.0" encoding="utf-8"?>
<svg xmlns="http://www.w3.org/2000/svg" xmlns:xlink="http://www.w3.org/1999/xlink">
    <symbol xmlns="http://www.w3.org/2000/svg" id="close_btn" viewBox="0 0 62.96 62.93">
        <g>
            <line x1="1.02" y1="61.9" x2="61.94" y2="1.02" style="fill:none;stroke:#616161;stroke-miterlimit:10;stroke-width:2.8958485237542346px"/>
            <line x1="1.02" y1="1.02" x2="61.94" y2="61.9" style="fill:none;stroke:#616161;stroke-miterlimit:10;stroke-width:2.8958485237542346px"/>
        </g>
    </symbol>
    <symbol xmlns="http://www.w3.org/2000/svg" id="sv_deal" viewBox="0 0 63.91 64">
        <g>
            <path d="M56.38,43.56a10.66,10.66,0,0,1-12.9,12.88,2.27,2.27,0,0,0-2.44,1,10.6,10.6,0,0,1-14.73,3.45,10.2,10.2,0,0,1-3.45-3.45,2.18,2.18,0,0,0-2.44-1,10.72,10.72,0,0,1-12.8-13A2.26,2.26,0,0,0,6.6,41,10.57,10.57,0,0,1,3.15,26.32,10.2,10.2,0,0,1,6.6,22.87a2.18,2.18,0,0,0,1-2.43A10.92,10.92,0,0,1,15.54,7.55a10.75,10.75,0,0,1,5.08,0,2.27,2.27,0,0,0,2.44-1A10.6,10.6,0,0,1,37.79,3.09a12.47,12.47,0,0,1,3.35,3.55,2.18,2.18,0,0,0,2.44,1,10.55,10.55,0,0,1,12.8,7.81,10.7,10.7,0,0,1,0,5.07,2.26,2.26,0,0,0,1,2.43A10.57,10.57,0,0,1,61,37.58a10.8,10.8,0,0,1-3.56,3.55A2.26,2.26,0,0,0,56.38,43.56Z" transform="translate(-0.06 0)" style="fill:none;stroke:#616161;stroke-miterlimit:10;stroke-width:2.9131819921207036px"/>
            <polygon points="18.01 44.92 45.23 17.73 45.59 18.09 18.37 45.28 18.01 44.92" style="fill:none;stroke:#616161;stroke-miterlimit:10;stroke-width:2px"/>
            <circle cx="27.27" cy="27.34" r="2.54" style="fill:none;stroke:#616161;stroke-miterlimit:10;stroke-width:2.9131819921207036px"/>
            <circle cx="36.21" cy="36.26" r="2.54" style="fill:none;stroke:#616161;stroke-miterlimit:10;stroke-width:2.9131819921207036px"/>
        </g>
    </symbol>
    <symbol xmlns="http://www.w3.org/2000/svg" id="sv_quick_book" viewBox="0 0 61.18 62.92">
        <g><line x1="1.43" y1="41.09" x2="21.16" y2="41.09" style="fill:none;stroke:#616161;stroke-linecap:round;stroke-linejoin:round;stroke-width:2.859452215418886px"/><line x1="13.25" y1="26.12" x2="21.16" y2="26.12" style="fill:none;stroke:#616161;stroke-linecap:round;stroke-linejoin:round;stroke-width:2.859452215418886px"/><line x1="9.34" y1="33.65" x2="21.16" y2="33.65" style="fill:none;stroke:#616161;stroke-linecap:round;stroke-linejoin:round;stroke-width:2.859452215418886px"/><polyline points="33.64 21.83 33.64 34.13 45.93 44.81" style="fill:none;stroke:#616161;stroke-linecap:round;stroke-linejoin:round;stroke-width:2.859452215418886px"/><line x1="31.07" y1="1.43" x2="36.31" y2="1.43" style="fill:none;stroke:#616161;stroke-linecap:round;stroke-linejoin:round;stroke-width:2.859452215418886px"/><line x1="33.64" y1="1.43" x2="33.64" y2="9.25" style="fill:none;stroke:#616161;stroke-linecap:round;stroke-linejoin:round;stroke-width:2.859452215418886px"/><line x1="54.61" y1="9.25" x2="58.51" y2="13.16" style="fill:none;stroke:#616161;stroke-linecap:round;stroke-linejoin:round;stroke-width:2.859452215418886px"/><line x1="56.51" y1="11.15" x2="51.46" y2="16.21" style="fill:none;stroke:#616161;stroke-linecap:round;stroke-linejoin:round;stroke-width:2.859452215418886px"/><path d="M35,9.79A26.12,26.12,0,1,1,18.56,56.21" transform="translate(-1.41 -0.54)" style="fill:none;stroke:#616161;stroke-linecap:round;stroke-linejoin:round;stroke-width:2.859452215418886px"/></g>
    </symbol>
    <symbol xmlns="http://www.w3.org/2000/svg" id="sv_cancel" viewBox="0 0 63.05 57.79">
        <g><path d="M62,28.3a4.67,4.67,0,0,1-4.48,4.84H47a4.73,4.73,0,0,1-4.57-4.74V25.07A4.67,4.67,0,0,1,47,20.23H57.43A4.58,4.58,0,0,1,61.9,25v.09Z" transform="translate(-0.48 -3.05)" style="fill:none;stroke:#616161;stroke-miterlimit:10;stroke-width:3.0522653513642877px"/><ellipse cx="48.48" cy="23.54" rx="1.33" ry="1.33" style="fill:none;stroke:#616161;stroke-linecap:round;stroke-linejoin:round;stroke-width:3.0522653513642877px"/><ellipse cx="28.67" cy="46.02" rx="10.29" ry="10.25" style="fill:none;stroke:#616161;stroke-linejoin:round;stroke-width:3.0522653513642877px"/><line x1="24.38" y1="50.29" x2="33.05" y2="41.66" style="fill:none;stroke:#616161;stroke-linecap:round;stroke-linejoin:round;stroke-width:3.0522653513642877px"/><line x1="33.05" y1="50.29" x2="24.38" y2="41.66" style="fill:none;stroke:#616161;stroke-linecap:round;stroke-linejoin:round;stroke-width:3.0522653513642877px"/><path d="M47,33.14a4.58,4.58,0,0,1-4.48-4.74V25.07A4.67,4.67,0,0,1,47,20.23h9.81V13.69a9.17,9.17,0,0,0-9-9.11H7.24A5.27,5.27,0,0,0,2,9.8H2V43.57a5.27,5.27,0,0,0,5.24,5.22H18.86v.28a10.29,10.29,0,0,0,20.57,0v-.28h8.19a9.11,9.11,0,0,0,9.14-9V33.23L47,33.14Z" transform="translate(-0.48 -3.05)" style="fill:none;stroke:#616161;stroke-linejoin:round;stroke-width:3.0522653513642877px"/></g>
    </symbol>
    <symbol xmlns="http://www.w3.org/2000/svg" id="sv_address" viewBox="0 0 52.31 63.95">
        <g><path d="M56.68,26.7C56.68,45.26,32,62.5,32,62.5S7.32,45.26,7.32,26.7C7.32,12.78,17.61,1.5,32,1.5S56.68,12.78,56.68,26.7Z" transform="translate(-5.85 -0.02)" style="fill:none;stroke:#fa4616;stroke-linecap:round;stroke-linejoin:round;stroke-width:2.9501672203175646px"></path><ellipse cx="26.15" cy="25.34" rx="13.71" ry="13.26" style="fill:none;stroke:#fa4616;stroke-linecap:round;stroke-linejoin:round;stroke-width:2.9501672203175646px"></ellipse></g>
    </symbol>
    <symbol xmlns="http://www.w3.org/2000/svg" id="sv_concierge" viewBox="0 0 64 59.87">
        <g><path d="M15.51,28.05c0-4.1,3.91-5.87,7.48-5.87,3.88,0,8.09,1.58,8.09,6.18,0,4.93-3.71,5.87-7.78,5.87-1.61,0-4.21.42-4.21,2.52v1.66h12v3.41H15.43v-5.1c0-4.46,4-5.79,7.87-5.79,1.47,0,4.15-.25,4.15-2.49s-1.91-3.1-4.4-3.1c-1.91,0-3.88,1-3.91,2.71Z" transform="translate(0 -2.06)" style="fill:#323232"/><path d="M46.3,22.46V34.59h2.27v3.55H46.3v3.68H42.7V38.14H32.34L32,34.42l8.72-12ZM42.7,34.59v-9l-6.56,9Z" transform="translate(0 -2.06)" style="fill:#323232"/><path d="M39,59.35a2.52,2.52,0,0,1-2.45,2.58h-9A2.52,2.52,0,0,1,25,59.35h0a2.52,2.52,0,0,1,2.45-2.58h9A2.52,2.52,0,0,1,39,59.35Z" transform="translate(0 -2.06)" style="fill:#323232"/><path d="M3.87,41.94A3.78,3.78,0,0,1,0,38.26V24.7A3.78,3.78,0,0,1,3.87,21h0A3.78,3.78,0,0,1,7.74,24.7V38.26a3.78,3.78,0,0,1-3.87,3.67Z" transform="translate(0 -2.06)" style="fill:#323232"/><path d="M60.13,41.94a3.78,3.78,0,0,1-3.87-3.67V24.7A3.78,3.78,0,0,1,60.13,21h0A3.78,3.78,0,0,1,64,24.7V38.26a3.78,3.78,0,0,1-3.87,3.67Z" transform="translate(0 -2.06)" style="fill:#323232"/><path d="M32,2.06A29.45,29.45,0,0,0,2.58,31.48H5.16A26.84,26.84,0,1,1,32,58.32V60.9A29.42,29.42,0,0,0,32,2.06Z" transform="translate(0 -2.06)" style="fill:#323232"/></g>
    </symbol>
    <symbol xmlns="http://www.w3.org/2000/svg" id="sv_date" viewBox="0 0 62.88 62.94">
        <g><polyline points="11.63 6.25 0.97 6.25 0.97 61.97 61.91 61.97 61.91 6.25 51.24 6.25" style="fill:none;stroke:#fa4616;stroke-linecap:round;stroke-linejoin:round;stroke-width:1.9370360182267976px"/><rect x="11.63" y="0.97" width="7.92" height="10.68" style="fill:none;stroke:#fa4616;stroke-linecap:round;stroke-linejoin:round;stroke-width:1.9370360182267976px"/><rect x="43.32" y="0.97" width="7.92" height="10.68" style="fill:none;stroke:#fa4616;stroke-linecap:round;stroke-linejoin:round;stroke-width:1.9370360182267976px"/><line x1="19.55" y1="6.26" x2="43.32" y2="6.26" style="fill:none;stroke:#fa4616;stroke-linecap:round;stroke-linejoin:round;stroke-width:1.9370360182267976px"/><line x1="0.97" y1="19.57" x2="61.91" y2="19.57" style="fill:none;stroke:#fa4616;stroke-linecap:round;stroke-linejoin:round;stroke-width:1.9370360182267976px"/></g>
    </symbol>


    <symbol xmlns="http://www.w3.org/2000/svg" id="sv_address_grey" viewBox="0 0 52.31 63.95"><path
            d="M56.68,26.7C56.68,45.26,32,62.5,32,62.5S7.32,45.26,7.32,26.7C7.32,12.78,17.61,1.5,32,1.5S56.68,12.78,56.68,26.7Z"
            transform="translate(-5.85 -0.02)"
            style="fill:none;stroke:#616161;stroke-linecap:round;stroke-linejoin:round;stroke-width:2.9501672203175646px"/><ellipse
            cx="26.15" cy="25.34" rx="13.71" ry="13.26"
            style="fill:none;stroke:#616161;stroke-linecap:round;stroke-linejoin:round;stroke-width:2.9501672203175646px"/></symbol>
    <symbol xmlns="http://www.w3.org/2000/svg" id="sv_facebook" viewBox="0 0 32.8 63"><path d="M41.8,11.3h6.6V1c-1,0-2.1-.3-3.2-.3-2.1,0-3.9-.3-6-.3A13.74,13.74,0,0,0,30.8,3a12.19,12.19,0,0,0-5,8.4c-.3,1.6-.3,2.9-.5,4.5v7.6H15.6V34.8h9.7V63.4H37.1V35.1h9.7c.5-3.7,1-7.6,1.6-11.3h-11V15.7C37.4,12.3,39.2,11.3,41.8,11.3Z" transform="translate(-15.6 -0.4)" style="fill:#fff"/></symbol>
    <symbol xmlns="http://www.w3.org/2000/svg" id="sv_gplus" viewBox="0 0 64 40.06"><g><path d="M20.09,28.27v7.94H31a10.73,10.73,0,0,1-4,6.2,9.33,9.33,0,0,1-5.83,1.86,11.28,11.28,0,0,1-4.22-.5A11.69,11.69,0,0,1,8.68,33.35a18.78,18.78,0,0,1,.25-3.72c1.36-5.83,6.95-10.42,13.4-9.3a9.28,9.28,0,0,1,5.83,3L34,17.48a37.59,37.59,0,0,0-3.47-2.73A20.29,20.29,0,0,0,20.84,12H19a19.46,19.46,0,0,0-3.47.5A20.6,20.6,0,0,0,0,31a18.58,18.58,0,0,0,.5,5.33,18.87,18.87,0,0,0,8.06,12,18.4,18.4,0,0,0,10.91,3.72,30.48,30.48,0,0,0,6.7-.5,17.67,17.67,0,0,0,9.92-6.7C39.81,40,40.68,33.6,39.57,27.77,33,28.27,26.54,28.27,20.09,28.27Z" transform="translate(0 -12.02)" style="fill:#bdbdbd"/><polygon points="64 16.5 56.93 16.5 56.93 9.55 56.93 9.3 56.68 9.3 51.6 9.3 51.35 9.3 51.35 9.55 51.35 16.5 44.4 16.5 44.4 16.5 44.4 16.5 44.4 21.83 44.4 21.83 44.4 21.83 51.35 21.83 51.35 28.77 51.35 29.02 51.6 29.02 56.68 29.02 56.93 29.02 56.93 28.77 56.93 21.83 64 21.83 64 21.83 64 21.83 64 16.5" style="fill:#fff"/></g></symbol>
    <symbol xmlns="http://www.w3.org/2000/svg" id="sv_instagram" viewBox="0 0 63.05 62.85"><path d="M63,16.4A17.84,17.84,0,0,0,58,5.6C54.8,2.5,50.9,1.2,46.4,1,39.1.5,21.5.2,15.2,1.3c-7,1-11.5,5.2-13.6,12.2C0,18.8.3,43.7,1.3,48.9c1.3,7.3,5.5,11.8,12.6,13.6,5,1.3,29.4,1,34.9.3,7.3-1,11.8-5.5,13.9-12.6C64,44.8,63.5,21.4,63,16.4ZM57.2,47.9c-.8,5.5-4.5,8.9-10,9.4-5,.5-27.8.8-32.5-.5a10.69,10.69,0,0,1-7.9-8.9c-.8-4.5-.8-26,0-31.7.8-5.5,4.5-8.9,10-9.4s25.7-.8,30.9,0c5.5.8,8.9,4.5,9.4,10C58,22.2,58,42.4,57.2,47.9ZM32,16.2A16.37,16.37,0,0,0,15.7,32.5a15.86,15.86,0,0,0,16,16A16.18,16.18,0,0,0,48,32.5,15.75,15.75,0,0,0,32,16.2Zm0,26.5A10.25,10.25,0,0,1,21.8,32.2a10.5,10.5,0,0,1,21,0A11,11,0,0,1,32,42.7ZM52.5,15.4a3.7,3.7,0,0,1-7.4,0,3.7,3.7,0,1,1,7.4,0Z" transform="translate(-0.48 -0.55)" style="fill:#fff"/></symbol>
    <symbol xmlns="http://www.w3.org/2000/svg" id="sv_twitter" viewBox="0 0 63.1 51.54"><path  d="M19.8,46c-6.8-.3-11-5-12-8.9a11.42,11.42,0,0,0,5.5-.3h.3A12.83,12.83,0,0,1,3.4,24a11.76,11.76,0,0,0,5.8,1.6A13.62,13.62,0,0,1,4,17.8,12.86,12.86,0,0,1,5.3,8.4C12.4,16.5,21.2,21.2,32,22a13,13,0,0,0-.3-1.3,13.54,13.54,0,0,1,1.8-8.4,12.86,12.86,0,0,1,8.6-5.8,11.82,11.82,0,0,1,11.2,3.7c.3.3.3.3.8.3a27.09,27.09,0,0,0,7.6-2.9H62a14.67,14.67,0,0,1-5.5,7.1,29.51,29.51,0,0,0,7.1-1.8h0c-.5.5-1,1.3-1.6,1.8a24.74,24.74,0,0,1-4.7,4.4c-.3-.1-.3.2-.3.5a38.23,38.23,0,0,1-.3,5.8,37,37,0,0,1-3.4,11.5,41.56,41.56,0,0,1-7.1,10.2A34.66,34.66,0,0,1,28.4,57a34.34,34.34,0,0,1-7.1.8A36.47,36.47,0,0,1,.8,52.2a.29.29,0,0,1-.3-.3,24.17,24.17,0,0,0,12.8-1.8A33,33,0,0,0,19.8,46Z" transform="translate(-0.5 -6.27)" style="fill:#fff"/></symbol>
    <symbol xmlns="http://www.w3.org/2000/svg" id="sv_pinterest" viewBox="0 0 48.93 62.89"><path  d="M28.1,41.4c0,.3,0,.3-.3.5-2.4,9.2-2.6,11-5,15.2a36.79,36.79,0,0,1-3.9,5.8c-.3.3-.3.5-.5.5s-.3-.3-.5-.8a74.4,74.4,0,0,1-.5-8.4c0-3.7.5-5,5.3-24.4V29a13.78,13.78,0,0,1-.3-9.2c2.1-6.8,9.7-7.1,11-1.6.8,3.4-1.3,7.9-2.9,14.5-1.3,5.5,5,9.5,10.5,5.3,5-3.7,7.1-12.6,6.6-18.7C46.8,7,33.1,4.1,24.5,8.3c-10,4.5-12.1,16.8-7.6,22.6.5.8,1.1,1.1.8,1.8-.3,1.1-.5,2.4-.8,3.4A1.45,1.45,0,0,1,15,37a11.21,11.21,0,0,1-4.2-3.2c-3.7-4.7-5-13.9.2-21.8C16.5,3.3,27-.4,36.5.7,47.9,2,54.9,9.6,56.3,18.5c.5,3.9.3,13.9-5.5,20.8C44.2,47.2,34,47.7,29,43A2.71,2.71,0,0,0,28.1,41.4Z" transform="translate(-7.55 -0.51)" style="fill:#fff"/></symbol>
</svg>