<?xml version="1.0" encoding="utf-8"?>
<svg xmlns="http://www.w3.org/2000/svg" xmlns:xlink="http://www.w3.org/1999/xlink">
    <defs>
        <circle id="b" cx="20" cy="20" r="20"/>
        <filter id="a" width="180%" height="180%" x="-40%" y="-35%" filterUnits="objectBoundingBox">
            <feOffset dy="2" in="SourceAlpha" result="shadowOffsetOuter1"/>
            <feGaussianBlur in="shadowOffsetOuter1" result="shadowBlurOuter1" stdDeviation="5"/>
            <feColorMatrix in="shadowBlurOuter1" values="0 0 0 0 0 0 0 0 0 0 0 0 0 0 0 0 0 0 0.2 0"/>
        </filter>
    </defs>
    <symbol xmlns="http://www.w3.org/2000/svg" id="icon-edit" viewBox="0 -2 15 15">
        <g fill="none" fill-rule="nonzero">
            <path fill="#FA4616" d="M8.96 3.507l2.441 2.45-6.178 6.2-2.439-2.45 6.176-6.2zm4.293-.591l-1.088-1.093a1.077 1.077 0 0 0-1.526 0L9.596 2.87l2.44 2.45 1.217-1.221a.837.837 0 0 0 0-1.183zM1.507 13.15c-.045.201.136.38.336.332l2.72-.662-2.44-2.45-.616 2.78z"/>
            <path d="M0 0h15v15H0z"/>
        </g>
    </symbol>
    <symbol xmlns="http://www.w3.org/2000/svg" id="arraow-left" viewBox="0 0 15 40">
        <g fill="none" fill-rule="nonzero">
            <path fill="#E5E5E5" fill-rule="evenodd" d="M15 6.046L2.778 19.099 15 34.034V40L0 20.82v-3.923L15 0z"/>
        </g>
    </symbol>
    <symbol xmlns="http://www.w3.org/2000/svg" id="arrow-up" viewBox="0 0 476.7 476.7">
        <g fill="none" fill-rule="nonzero">
            <path d="M238.4 0C106.7 0 0 106.7 0 238.4c0 131.7 106.7 238.4 238.4 238.4 131.7 0 238.4-106.7 238.4-238.4C476.7 106.7 370 0 238.4 0zM352.7 289.2c-6.2 6.2-16.3 6.2-22.5 0l-91.9-91.9 -91.9 91.9c-6.2 6.2-16.3 6.2-22.5 0 -6.2-6.2-6.2-16.3 0-22.5L227.1 163.7c3.1-3.1 7.2-4.6 11.3-4.6s8.2 1.5 11.3 4.6L352.7 266.8C358.9 272.9 358.9 283 352.7 289.2z" fill="#bdbdbd"/>
        </g>
    </symbol>
    <symbol xmlns="http://www.w3.org/2000/svg" id="icon-leftarrow" viewBox="0 0 60 60">
        <g fill="none" fill-rule="nonzero">
            <g transform="translate(10 8)">
                <use fill="#000" filter="url(#a)" xlink:href="#b"/>
                <use fill="#FFF" xlink:href="#b"/>
            </g>
            <path fill="#9E9E9E" d="M26.324 28.792l6.789 6.88a1.095 1.095 0 0 0 1.563 0 1.131 1.131 0 0 0 0-1.585L28.67 28l6.007-6.087a1.131 1.131 0 0 0 0-1.585 1.095 1.095 0 0 0-1.564 0l-6.788 6.88A1.124 1.124 0 0 0 26 28c0 .287.108.573.324.792z"/>
            <path d="M5 3h50v50H5z"/>
        </g>
    </symbol>
    <symbol xmlns="http://www.w3.org/2000/svg" id="icon-rightarrow" viewBox="0 0 60 60">
        <g fill="none" fill-rule="nonzero">
            <g transform="translate(10 8)">
                <use fill="#000" filter="url(#a)" xlink:href="#b"/>
                <use fill="#FFF" xlink:href="#b"/>
            </g>
            <path fill="#9E9E9E" d="M34.676 28.792l-6.789 6.88a1.095 1.095 0 0 1-1.563 0 1.131 1.131 0 0 1 0-1.585L32.33 28l-6.007-6.087a1.131 1.131 0 0 1 0-1.585 1.095 1.095 0 0 1 1.564 0l6.788 6.88c.216.219.324.505.324.792 0 .287-.108.573-.324.792z"/>
            <path d="M5 3h50v50H5z"/>
        </g>
    </symbol>
    <symbol xmlns="http://www.w3.org/2000/svg" id="photos" viewBox="0 0 20 20">
        <g fill="none" fill-rule="evenodd">
            <g fill="#FFF" fill-rule="nonzero" transform="translate(1 2)">
                <path d="M3.785 15.992a1.538 1.538 0 0 1-1.497-1.193L.074 5.182a1.541 1.541 0 0 1 1.152-1.845l4.36-1.005a.855.855 0 1 1 .383 1.664l-4.19.971 2.14 9.282 6.726-1.552a.854.854 0 1 1 .412 1.658l-.027.007-6.903 1.589c-.112.026-.226.04-.342.04z"/>
                <path d="M15.207 14.782h-.147l-9.416-.899a1.538 1.538 0 0 1-1.387-1.674L5.282 1.403c.08-.846.83-1.467 1.675-1.388l9.415.882c.845.079 1.467.829 1.387 1.674l-1.025 10.806a1.538 1.538 0 0 1-1.527 1.395v.01zm-9.228-2.584l9.084.862.977-10.454-9.076-.872-.985 10.464z"/>
                <path d="M14.246 12.086L12.62 7.02 10.65 9.324 9.359 8.118l-2.413 3.277z"/>
                <circle cx="9.497" cy="4.796" r="1"/>
            </g>
            <path d="M0 0h20v20H0z"/>
        </g>
    </symbol>
    <symbol xmlns="http://www.w3.org/2000/svg" id="money" viewBox="0 0 18 18">
        <g fill="none" fill-rule="evenodd">
            <g stroke="#616161" stroke-linecap="round" stroke-linejoin="round">
                <path d="M1.236 12.008h12.781V3.936H1.237z"/>
                <path d="M15.362 5.282v8.072H2.582"/>
                <path d="M16.708 6.627v8.072H3.927M9.645 7.972a2.018 2.018 0 1 1-4.036 0 2.018 2.018 0 0 1 4.036 0zM2.582 10.663h1.345M11.326 5.282h1.346"/>
            </g>
            <path d="M0 0h18v18H0z"/>
        </g>
    </symbol>

    <symbol xmlns="http://www.w3.org/2000/svg" id="cuisine" viewBox="0 0 18 18">
        <g fill="none" fill-rule="evenodd">
            <g stroke="#616161" stroke-linejoin="round">
                <path stroke-linecap="round" d="M14.738 10.913h2.025c0-5.4-.945-9.113-1.878-9.113h-.147v13.838M1.238 2.475v2.7a2.025 2.025 0 1 0 4.05 0v-2.7M3.262 2.475v13.162"/>
                <path d="M13.388 11.25a4.387 4.387 0 1 1-8.775 0 4.387 4.387 0 0 1 8.774 0z"/>
            </g>
            <path d="M0 0h18v18H0z"/>
        </g>
    </symbol>

    <symbol xmlns="http://www.w3.org/2000/svg" id="timings" viewBox="0 0 18 18">
        <g fill="none" fill-rule="evenodd">
            <g stroke="#616161" stroke-linecap="round" stroke-linejoin="round">
                <path d="M15.708 9A6.709 6.709 0 1 1 2.291 9a6.709 6.709 0 0 1 13.417 0z"/>
                <path d="M8.708 5.792V9l3.5 3.208"/>
            </g>
            <path d="M0 0h18v18H0z"/>
        </g>
    </symbol>
    <symbol xmlns="http://www.w3.org/2000/svg" id="logo-icon" viewBox="0 0 24 24">
        <g fill="none" fill-rule="evenodd">
            <path fill="#FFF" d="M12.914 1.427c-.288-.52-.668-.688-.908-.69V.732v.003h-.008V.733h-.004v.003c-.239.003-.62.17-.903.691 0 0-.93 1.634-.394 3.363 0 0 .154.572.724.757 0 0 .348.077.353.421l-.245 4.562H12.47l-.245-4.562c.007-.344.353-.421.353-.421.57-.185.722-.757.722-.757.539-1.73-.387-3.363-.387-3.363M22.573 12.91c.523-.284.69-.665.692-.905h.002V12c-.002-.003 0-.004 0-.004l-.002-.003c-.003-.239-.17-.621-.692-.903 0 0-1.635-.93-3.363-.394 0 0-.571.155-.757.723 0 0-.077.349-.422.354l-4.561-.244V12.473l4.561-.247c.345.008.422.352.422.352.186.57.757.724.757.724 1.728.538 3.363-.393 3.363-.393M18.811 20.27c.61.154 1.037-.03 1.231-.221h.004l.003-.003v-.003h.003v-.002c.187-.192.372-.62.218-1.228 0 0-.453-1.944-2.154-2.78 0 0-.54-.297-1.13.022 0 0-.338.22-.594-.026l-3.147-3.54-.374.373-.01.01-.371.372 3.54 3.147c.247.26.023.594.023.594-.318.59-.024 1.132-.024 1.132.84 1.697 2.782 2.154 2.782 2.154M11.09 22.576c.285.519.664.682.904.69h.012c.24-.008.62-.171.906-.69 0 0 .927-1.636.39-3.367 0 0-.154-.571-.724-.756 0 0-.346-.075-.352-.423l.245-4.56H11.527l.248 4.56c-.007.348-.354.423-.354.423-.57.185-.724.756-.724.756-.536 1.73.392 3.367.392 3.367M3.73 18.81c-.155.61.03 1.038.218 1.23l.004.005v.003l.002.002h.003l.001.001c.196.189.622.373 1.23.22 0 0 1.944-.454 2.78-2.154 0 0 .297-.54-.022-1.132 0 0-.22-.335.023-.593l3.541-3.146-.373-.374-.008-.008-.373-.374-3.146 3.54c-.26.25-.596.026-.596.026-.59-.32-1.129-.025-1.129-.025-1.699.84-2.155 2.78-2.155 2.78M1.427 11.088c-.522.287-.688.667-.694.908V12.007c.004.24.172.617.694.903 0 0 1.635.93 3.365.392 0 0 .57-.153.755-.722 0 0 .076-.348.423-.353l4.56.244V11.529l-4.56.247c-.349-.007-.423-.356-.423-.356-.185-.57-.755-.722-.755-.722-1.732-.537-3.365.39-3.365.39M5.189 3.73c-.61-.154-1.036.031-1.233.22h-.002v.001l-.002.002-.002.001-.001.005h-.001c-.19.194-.371.622-.218 1.231 0 0 .453 1.94 2.15 2.781 0 0 .543.295 1.134-.028 0 0 .336-.219.594.03l3.146 3.537.374-.372.009-.007.373-.376-3.54-3.148c-.248-.255-.027-.59-.027-.59.32-.595.026-1.133.026-1.133-.839-1.7-2.78-2.155-2.78-2.155"/>
            <path fill="#FA4616" d="M20.27 5.186c.154-.61-.03-1.033-.22-1.23v-.002h-.004s0-.002-.003-.003v-.003h-.002c-.193-.188-.62-.371-1.232-.22 0 0-1.94.457-2.78 2.157 0 0-.296.54.026 1.13 0 0 .222.332-.025.595l-3.54 3.146.373.372.007.009.374.373 3.147-3.539c.256-.25.593-.027.593-.027.591.32 1.132.025 1.132.025 1.698-.839 2.154-2.783 2.154-2.783"/>
            <path d="M-1-1h26v26H-1z"/>
        </g>
    </symbol>
    <symbol xmlns="http://www.w3.org/2000/svg" id="search" viewBox="0 0 20 20">
        <g fill="none" fill-rule="evenodd">
            <path fill="#424242" fill-rule="nonzero" d="M16.787 15.744l-3.39-3.463a5.572 5.572 0 0 0 1.349-3.632c0-3.115-2.58-5.649-5.75-5.649s-5.75 2.534-5.75 5.65c0 3.114 2.58 5.648 5.75 5.648 1.19 0 2.324-.352 3.294-1.022l3.416 3.49a.75.75 0 0 0 .54.226c.195 0 .38-.073.52-.206a.729.729 0 0 0 .02-1.042zM8.995 4.474c2.343 0 4.25 1.873 4.25 4.175 0 2.303-1.907 4.176-4.25 4.176-2.344 0-4.25-1.873-4.25-4.176 0-2.302 1.906-4.175 4.25-4.175z"/>
            <path d="M0 0h20v20H0z"/>
        </g>
    </symbol>
    <symbol xmlns="http://www.w3.org/2000/svg" id="close_btn" viewBox="0 0 62.96 62.93">
        <g>
            <line x1="1.02" y1="61.9" x2="61.94" y2="1.02" style="fill:none;stroke:#616161;stroke-miterlimit:10;stroke-width:2.8958485237542346px"/>
            <line x1="1.02" y1="1.02" x2="61.94" y2="61.9" style="fill:none;stroke:#616161;stroke-miterlimit:10;stroke-width:2.8958485237542346px"/>
        </g>
    </symbol>
    <symbol xmlns="http://www.w3.org/2000/svg" id="sv_deal" viewBox="0 0 63.91 64">
        <g>
            <path d="M56.38,43.56a10.66,10.66,0,0,1-12.9,12.88,2.27,2.27,0,0,0-2.44,1,10.6,10.6,0,0,1-14.73,3.45,10.2,10.2,0,0,1-3.45-3.45,2.18,2.18,0,0,0-2.44-1,10.72,10.72,0,0,1-12.8-13A2.26,2.26,0,0,0,6.6,41,10.57,10.57,0,0,1,3.15,26.32,10.2,10.2,0,0,1,6.6,22.87a2.18,2.18,0,0,0,1-2.43A10.92,10.92,0,0,1,15.54,7.55a10.75,10.75,0,0,1,5.08,0,2.27,2.27,0,0,0,2.44-1A10.6,10.6,0,0,1,37.79,3.09a12.47,12.47,0,0,1,3.35,3.55,2.18,2.18,0,0,0,2.44,1,10.55,10.55,0,0,1,12.8,7.81,10.7,10.7,0,0,1,0,5.07,2.26,2.26,0,0,0,1,2.43A10.57,10.57,0,0,1,61,37.58a10.8,10.8,0,0,1-3.56,3.55A2.26,2.26,0,0,0,56.38,43.56Z" transform="translate(-0.06 0)" style="fill:none;stroke:#616161;stroke-miterlimit:10;stroke-width:2.9131819921207036px"/>
            <polygon points="18.01 44.92 45.23 17.73 45.59 18.09 18.37 45.28 18.01 44.92" style="fill:none;stroke:#616161;stroke-miterlimit:10;stroke-width:2px"/>
            <circle cx="27.27" cy="27.34" r="2.54" style="fill:none;stroke:#616161;stroke-miterlimit:10;stroke-width:2.9131819921207036px"/>
            <circle cx="36.21" cy="36.26" r="2.54" style="fill:none;stroke:#616161;stroke-miterlimit:10;stroke-width:2.9131819921207036px"/>
        </g>
    </symbol>
    <symbol xmlns="http://www.w3.org/2000/svg" id="sv_quick_book" viewBox="0 0 61.18 62.92">
        <g><line x1="1.43" y1="41.09" x2="21.16" y2="41.09" style="fill:none;stroke:#616161;stroke-linecap:round;stroke-linejoin:round;stroke-width:2.859452215418886px"/><line x1="13.25" y1="26.12" x2="21.16" y2="26.12" style="fill:none;stroke:#616161;stroke-linecap:round;stroke-linejoin:round;stroke-width:2.859452215418886px"/><line x1="9.34" y1="33.65" x2="21.16" y2="33.65" style="fill:none;stroke:#616161;stroke-linecap:round;stroke-linejoin:round;stroke-width:2.859452215418886px"/><polyline points="33.64 21.83 33.64 34.13 45.93 44.81" style="fill:none;stroke:#616161;stroke-linecap:round;stroke-linejoin:round;stroke-width:2.859452215418886px"/><line x1="31.07" y1="1.43" x2="36.31" y2="1.43" style="fill:none;stroke:#616161;stroke-linecap:round;stroke-linejoin:round;stroke-width:2.859452215418886px"/><line x1="33.64" y1="1.43" x2="33.64" y2="9.25" style="fill:none;stroke:#616161;stroke-linecap:round;stroke-linejoin:round;stroke-width:2.859452215418886px"/><line x1="54.61" y1="9.25" x2="58.51" y2="13.16" style="fill:none;stroke:#616161;stroke-linecap:round;stroke-linejoin:round;stroke-width:2.859452215418886px"/><line x1="56.51" y1="11.15" x2="51.46" y2="16.21" style="fill:none;stroke:#616161;stroke-linecap:round;stroke-linejoin:round;stroke-width:2.859452215418886px"/><path d="M35,9.79A26.12,26.12,0,1,1,18.56,56.21" transform="translate(-1.41 -0.54)" style="fill:none;stroke:#616161;stroke-linecap:round;stroke-linejoin:round;stroke-width:2.859452215418886px"/></g>
    </symbol>
    <symbol xmlns="http://www.w3.org/2000/svg" id="sv_cancel" viewBox="0 0 63.05 57.79">
        <g><path d="M62,28.3a4.67,4.67,0,0,1-4.48,4.84H47a4.73,4.73,0,0,1-4.57-4.74V25.07A4.67,4.67,0,0,1,47,20.23H57.43A4.58,4.58,0,0,1,61.9,25v.09Z" transform="translate(-0.48 -3.05)" style="fill:none;stroke:#616161;stroke-miterlimit:10;stroke-width:3.0522653513642877px"/><ellipse cx="48.48" cy="23.54" rx="1.33" ry="1.33" style="fill:none;stroke:#616161;stroke-linecap:round;stroke-linejoin:round;stroke-width:3.0522653513642877px"/><ellipse cx="28.67" cy="46.02" rx="10.29" ry="10.25" style="fill:none;stroke:#616161;stroke-linejoin:round;stroke-width:3.0522653513642877px"/><line x1="24.38" y1="50.29" x2="33.05" y2="41.66" style="fill:none;stroke:#616161;stroke-linecap:round;stroke-linejoin:round;stroke-width:3.0522653513642877px"/><line x1="33.05" y1="50.29" x2="24.38" y2="41.66" style="fill:none;stroke:#616161;stroke-linecap:round;stroke-linejoin:round;stroke-width:3.0522653513642877px"/><path d="M47,33.14a4.58,4.58,0,0,1-4.48-4.74V25.07A4.67,4.67,0,0,1,47,20.23h9.81V13.69a9.17,9.17,0,0,0-9-9.11H7.24A5.27,5.27,0,0,0,2,9.8H2V43.57a5.27,5.27,0,0,0,5.24,5.22H18.86v.28a10.29,10.29,0,0,0,20.57,0v-.28h8.19a9.11,9.11,0,0,0,9.14-9V33.23L47,33.14Z" transform="translate(-0.48 -3.05)" style="fill:none;stroke:#616161;stroke-linejoin:round;stroke-width:3.0522653513642877px"/></g>
    </symbol>
    <symbol xmlns="http://www.w3.org/2000/svg" id="sv_address" viewBox="0 0 52.31 63.95">
        <g><path d="M56.68,26.7C56.68,45.26,32,62.5,32,62.5S7.32,45.26,7.32,26.7C7.32,12.78,17.61,1.5,32,1.5S56.68,12.78,56.68,26.7Z" transform="translate(-5.85 -0.02)" style="fill:none;stroke:#fa4616;stroke-linecap:round;stroke-linejoin:round;stroke-width:2.9501672203175646px"></path><ellipse cx="26.15" cy="25.34" rx="13.71" ry="13.26" style="fill:none;stroke:#fa4616;stroke-linecap:round;stroke-linejoin:round;stroke-width:2.9501672203175646px"></ellipse></g>
    </symbol>
    <symbol xmlns="http://www.w3.org/2000/svg" id="sv_concierge" viewBox="0 0 64 59.87">
        <g><path d="M15.51,28.05c0-4.1,3.91-5.87,7.48-5.87,3.88,0,8.09,1.58,8.09,6.18,0,4.93-3.71,5.87-7.78,5.87-1.61,0-4.21.42-4.21,2.52v1.66h12v3.41H15.43v-5.1c0-4.46,4-5.79,7.87-5.79,1.47,0,4.15-.25,4.15-2.49s-1.91-3.1-4.4-3.1c-1.91,0-3.88,1-3.91,2.71Z" transform="translate(0 -2.06)" style="fill:#323232"/><path d="M46.3,22.46V34.59h2.27v3.55H46.3v3.68H42.7V38.14H32.34L32,34.42l8.72-12ZM42.7,34.59v-9l-6.56,9Z" transform="translate(0 -2.06)" style="fill:#323232"/><path d="M39,59.35a2.52,2.52,0,0,1-2.45,2.58h-9A2.52,2.52,0,0,1,25,59.35h0a2.52,2.52,0,0,1,2.45-2.58h9A2.52,2.52,0,0,1,39,59.35Z" transform="translate(0 -2.06)" style="fill:#323232"/><path d="M3.87,41.94A3.78,3.78,0,0,1,0,38.26V24.7A3.78,3.78,0,0,1,3.87,21h0A3.78,3.78,0,0,1,7.74,24.7V38.26a3.78,3.78,0,0,1-3.87,3.67Z" transform="translate(0 -2.06)" style="fill:#323232"/><path d="M60.13,41.94a3.78,3.78,0,0,1-3.87-3.67V24.7A3.78,3.78,0,0,1,60.13,21h0A3.78,3.78,0,0,1,64,24.7V38.26a3.78,3.78,0,0,1-3.87,3.67Z" transform="translate(0 -2.06)" style="fill:#323232"/><path d="M32,2.06A29.45,29.45,0,0,0,2.58,31.48H5.16A26.84,26.84,0,1,1,32,58.32V60.9A29.42,29.42,0,0,0,32,2.06Z" transform="translate(0 -2.06)" style="fill:#323232"/></g>
    </symbol>
    <symbol xmlns="http://www.w3.org/2000/svg" id="sv_date" viewBox="0 0 62.88 62.94">
        <g><polyline points="11.63 6.25 0.97 6.25 0.97 61.97 61.91 61.97 61.91 6.25 51.24 6.25" style="fill:none;stroke:#fa4616;stroke-linecap:round;stroke-linejoin:round;stroke-width:1.9370360182267976px"/><rect x="11.63" y="0.97" width="7.92" height="10.68" style="fill:none;stroke:#fa4616;stroke-linecap:round;stroke-linejoin:round;stroke-width:1.9370360182267976px"/><rect x="43.32" y="0.97" width="7.92" height="10.68" style="fill:none;stroke:#fa4616;stroke-linecap:round;stroke-linejoin:round;stroke-width:1.9370360182267976px"/><line x1="19.55" y1="6.26" x2="43.32" y2="6.26" style="fill:none;stroke:#fa4616;stroke-linecap:round;stroke-linejoin:round;stroke-width:1.9370360182267976px"/><line x1="0.97" y1="19.57" x2="61.91" y2="19.57" style="fill:none;stroke:#fa4616;stroke-linecap:round;stroke-linejoin:round;stroke-width:1.9370360182267976px"/></g>
    </symbol>


    <symbol xmlns="http://www.w3.org/2000/svg" id="sv_address_grey" viewBox="0 0 52.31 63.95"><path
            d="M56.68,26.7C56.68,45.26,32,62.5,32,62.5S7.32,45.26,7.32,26.7C7.32,12.78,17.61,1.5,32,1.5S56.68,12.78,56.68,26.7Z"
            transform="translate(-5.85 -0.02)"
            style="fill:none;stroke:#616161;stroke-linecap:round;stroke-linejoin:round;stroke-width:2.9501672203175646px"/><ellipse
            cx="26.15" cy="25.34" rx="13.71" ry="13.26"
            style="fill:none;stroke:#616161;stroke-linecap:round;stroke-linejoin:round;stroke-width:2.9501672203175646px"/></symbol>
    <symbol xmlns="http://www.w3.org/2000/svg" id="sv_facebook" viewBox="0 0 32.8 63"><path d="M41.8,11.3h6.6V1c-1,0-2.1-.3-3.2-.3-2.1,0-3.9-.3-6-.3A13.74,13.74,0,0,0,30.8,3a12.19,12.19,0,0,0-5,8.4c-.3,1.6-.3,2.9-.5,4.5v7.6H15.6V34.8h9.7V63.4H37.1V35.1h9.7c.5-3.7,1-7.6,1.6-11.3h-11V15.7C37.4,12.3,39.2,11.3,41.8,11.3Z" transform="translate(-15.6 -0.4)" style="fill:#fff"/></symbol>
    <symbol xmlns="http://www.w3.org/2000/svg" id="sv_gplus" viewBox="0 0 64 40.06"><g><path d="M20.09,28.27v7.94H31a10.73,10.73,0,0,1-4,6.2,9.33,9.33,0,0,1-5.83,1.86,11.28,11.28,0,0,1-4.22-.5A11.69,11.69,0,0,1,8.68,33.35a18.78,18.78,0,0,1,.25-3.72c1.36-5.83,6.95-10.42,13.4-9.3a9.28,9.28,0,0,1,5.83,3L34,17.48a37.59,37.59,0,0,0-3.47-2.73A20.29,20.29,0,0,0,20.84,12H19a19.46,19.46,0,0,0-3.47.5A20.6,20.6,0,0,0,0,31a18.58,18.58,0,0,0,.5,5.33,18.87,18.87,0,0,0,8.06,12,18.4,18.4,0,0,0,10.91,3.72,30.48,30.48,0,0,0,6.7-.5,17.67,17.67,0,0,0,9.92-6.7C39.81,40,40.68,33.6,39.57,27.77,33,28.27,26.54,28.27,20.09,28.27Z" transform="translate(0 -12.02)" style="fill:#bdbdbd"/><polygon points="64 16.5 56.93 16.5 56.93 9.55 56.93 9.3 56.68 9.3 51.6 9.3 51.35 9.3 51.35 9.55 51.35 16.5 44.4 16.5 44.4 16.5 44.4 16.5 44.4 21.83 44.4 21.83 44.4 21.83 51.35 21.83 51.35 28.77 51.35 29.02 51.6 29.02 56.68 29.02 56.93 29.02 56.93 28.77 56.93 21.83 64 21.83 64 21.83 64 21.83 64 16.5" style="fill:#fff"/></g></symbol>
    <symbol xmlns="http://www.w3.org/2000/svg" id="sv_instagram" viewBox="0 0 63.05 62.85"><path d="M63,16.4A17.84,17.84,0,0,0,58,5.6C54.8,2.5,50.9,1.2,46.4,1,39.1.5,21.5.2,15.2,1.3c-7,1-11.5,5.2-13.6,12.2C0,18.8.3,43.7,1.3,48.9c1.3,7.3,5.5,11.8,12.6,13.6,5,1.3,29.4,1,34.9.3,7.3-1,11.8-5.5,13.9-12.6C64,44.8,63.5,21.4,63,16.4ZM57.2,47.9c-.8,5.5-4.5,8.9-10,9.4-5,.5-27.8.8-32.5-.5a10.69,10.69,0,0,1-7.9-8.9c-.8-4.5-.8-26,0-31.7.8-5.5,4.5-8.9,10-9.4s25.7-.8,30.9,0c5.5.8,8.9,4.5,9.4,10C58,22.2,58,42.4,57.2,47.9ZM32,16.2A16.37,16.37,0,0,0,15.7,32.5a15.86,15.86,0,0,0,16,16A16.18,16.18,0,0,0,48,32.5,15.75,15.75,0,0,0,32,16.2Zm0,26.5A10.25,10.25,0,0,1,21.8,32.2a10.5,10.5,0,0,1,21,0A11,11,0,0,1,32,42.7ZM52.5,15.4a3.7,3.7,0,0,1-7.4,0,3.7,3.7,0,1,1,7.4,0Z" transform="translate(-0.48 -0.55)" style="fill:#fff"/></symbol>
    <symbol xmlns="http://www.w3.org/2000/svg" id="sv_twitter" viewBox="0 0 63.1 51.54"><path  d="M19.8,46c-6.8-.3-11-5-12-8.9a11.42,11.42,0,0,0,5.5-.3h.3A12.83,12.83,0,0,1,3.4,24a11.76,11.76,0,0,0,5.8,1.6A13.62,13.62,0,0,1,4,17.8,12.86,12.86,0,0,1,5.3,8.4C12.4,16.5,21.2,21.2,32,22a13,13,0,0,0-.3-1.3,13.54,13.54,0,0,1,1.8-8.4,12.86,12.86,0,0,1,8.6-5.8,11.82,11.82,0,0,1,11.2,3.7c.3.3.3.3.8.3a27.09,27.09,0,0,0,7.6-2.9H62a14.67,14.67,0,0,1-5.5,7.1,29.51,29.51,0,0,0,7.1-1.8h0c-.5.5-1,1.3-1.6,1.8a24.74,24.74,0,0,1-4.7,4.4c-.3-.1-.3.2-.3.5a38.23,38.23,0,0,1-.3,5.8,37,37,0,0,1-3.4,11.5,41.56,41.56,0,0,1-7.1,10.2A34.66,34.66,0,0,1,28.4,57a34.34,34.34,0,0,1-7.1.8A36.47,36.47,0,0,1,.8,52.2a.29.29,0,0,1-.3-.3,24.17,24.17,0,0,0,12.8-1.8A33,33,0,0,0,19.8,46Z" transform="translate(-0.5 -6.27)" style="fill:#fff"/></symbol>
    <symbol xmlns="http://www.w3.org/2000/svg" id="sv_pinterest" viewBox="0 0 48.93 62.89"><path  d="M28.1,41.4c0,.3,0,.3-.3.5-2.4,9.2-2.6,11-5,15.2a36.79,36.79,0,0,1-3.9,5.8c-.3.3-.3.5-.5.5s-.3-.3-.5-.8a74.4,74.4,0,0,1-.5-8.4c0-3.7.5-5,5.3-24.4V29a13.78,13.78,0,0,1-.3-9.2c2.1-6.8,9.7-7.1,11-1.6.8,3.4-1.3,7.9-2.9,14.5-1.3,5.5,5,9.5,10.5,5.3,5-3.7,7.1-12.6,6.6-18.7C46.8,7,33.1,4.1,24.5,8.3c-10,4.5-12.1,16.8-7.6,22.6.5.8,1.1,1.1.8,1.8-.3,1.1-.5,2.4-.8,3.4A1.45,1.45,0,0,1,15,37a11.21,11.21,0,0,1-4.2-3.2c-3.7-4.7-5-13.9.2-21.8C16.5,3.3,27-.4,36.5.7,47.9,2,54.9,9.6,56.3,18.5c.5,3.9.3,13.9-5.5,20.8C44.2,47.2,34,47.7,29,43A2.71,2.71,0,0,0,28.1,41.4Z" transform="translate(-7.55 -0.51)" style="fill:#fff"/></symbol>

    <symbol xmlns="http://www.w3.org/2000/svg" id="prime_invitation_icon1"  viewBox="0 0 28 28">
        <g id="Msite" stroke="none" stroke-width="1" fill="none" fill-rule="evenodd">
            <g id="Landing-after-prime-member--(Prime-Member-Renewal)-Msite" transform="translate(-17.000000, -469.000000)">
                <g id="invitation" transform="translate(16.000000, 468.000000)">
                    <g transform="translate(1.000000, 1.000000)">
                        <path d="M14.9429766,0.804945313 C14.1759844,0.282734375 13.1676016,0.282734375 12.4006094,0.804945313 L1.29297656,8.367625 C0.769398437,8.72407813 0.45609375,9.31650781 0.45609375,9.94989844 L0.45609375,26.2574922 C0.45609375,26.9933125 1.052625,27.5897891 1.78839062,27.5897891 L25.5553594,27.5897891 C26.2911797,27.5897891 26.8876562,26.9932578 26.8876562,26.2574922 L26.8876562,9.94989844 C26.8876562,9.31645312 26.5743516,8.72413281 26.0507734,8.367625 L14.9429766,0.804945313 Z" id="Path" fill="#ED664C"></path>
                        <path d="M26.8875469,26.2576016 L26.8875469,9.94995313 C26.8875469,9.3165625 26.5742422,8.7241875 26.0506641,8.367625 L23.8178828,6.84742188 L14.3711641,12.5648906 C14.160125,12.6923125 13.9182969,12.7597422 13.6717656,12.7597422 C13.4275859,12.7597422 13.188,12.693625 12.9783281,12.5685 L3.57667187,6.81280469 L1.29297656,8.36767969 C0.769398437,8.72413281 0.45609375,9.3165625 0.45609375,9.95000781 L0.45609375,26.2576016 C0.45609375,26.9934219 1.052625,27.5898984 1.78839062,27.5898984 L25.55525,27.5898984 C26.2910703,27.5898984 26.8875469,26.9933672 26.8875469,26.2576016 Z" id="Path" fill="#ED664C"></path>
                        <path d="M23.5224062,23.2830391 L3.82117969,23.2830391 L3.82117969,5.82651563 C3.82117969,4.58685938 4.82617187,3.58186719 6.06582812,3.58186719 L21.2777031,3.58186719 C22.5173594,3.58186719 23.5223516,4.58685938 23.5223516,5.82651563 L23.5224062,23.2830391 Z" id="Path" fill="#FFFFFF"></path>
                        <path d="M11.2764531,15.3734766 L0.751242187,8.92992187 C0.561476562,9.23114062 0.45609375,9.58354687 0.45609375,9.94995312 L0.45609375,26.2575469 C0.45609375,26.9933672 1.052625,27.5898438 1.78839062,27.5898438 L25.5553594,27.5898438 C26.2911797,27.5898438 26.8876562,26.9933125 26.8876562,26.2575469 L26.8876562,9.94995312 C26.8876562,9.60503906 26.7941406,9.27264844 26.6249922,8.98351562 L16.0671875,15.3734766 C14.594125,16.2630234 12.7495156,16.2630234 11.2764531,15.3734766 Z" id="Path" fill="#ED664C"></path>
                        <path d="M11.4054609,15.4541406 L1.03408594,27.3626719 C1.24665625,27.5061172 1.50275781,27.5898984 1.77838281,27.5898984 L25.5453516,27.5898984 C25.8297266,27.5898984 26.0931016,27.5004844 26.3094453,27.3487266 L15.9565547,15.4319922 C14.5472578,16.2355703 12.8205,16.2432813 11.4054609,15.4541406 Z" id="Path" fill="#ED664C"></path>
                        <path d="M7.64121094,6.79366406 L19.7023203,6.79366406 C19.9288359,6.79366406 20.1124219,6.61007813 20.1124219,6.3835625 C20.1124219,6.15699219 19.9287813,5.97346094 19.7023203,5.97346094 L7.64121094,5.97346094 C7.41469531,5.97346094 7.23110938,6.15704688 7.23110938,6.3835625 C7.23110938,6.61007813 7.41475,6.79366406 7.64121094,6.79366406 Z" id="Path" fill="#000000"></path>
                        <path d="M7.64121094,8.92210156 L19.7023203,8.92210156 C19.9288359,8.92210156 20.1124219,8.73851563 20.1124219,8.512 C20.1124219,8.28542969 19.9287813,8.10189844 19.7023203,8.10189844 L7.64121094,8.10189844 C7.41469531,8.10189844 7.23110938,8.28548438 7.23110938,8.512 C7.23110938,8.73857031 7.41475,8.92210156 7.64121094,8.92210156 Z" id="Path" fill="#000000"></path>
                        <path d="M7.64121094,11.0504844 L13.3003828,11.0504844 C13.5268984,11.0504844 13.7104844,10.8668984 13.7104844,10.6403828 C13.7104844,10.4138125 13.5268438,10.2302812 13.3003828,10.2302812 L7.64121094,10.2302812 C7.41469531,10.2302812 7.23110938,10.4138672 7.23110938,10.6403828 C7.23110938,10.8668984 7.41475,11.0504844 7.64121094,11.0504844 Z" id="Path" fill="#000000"></path>
                        <path d="M26.2815547,8.02872656 L23.9325625,6.42933594 L23.9325625,5.82640625 C23.9325625,4.36258594 22.7416328,3.17165625 21.2778125,3.17165625 L19.1479531,3.17165625 L15.1738125,0.4659375 C14.2614062,-0.1553125 13.0822891,-0.1553125 12.1698281,0.4659375 L8.1991875,3.16935937 L8.20077344,3.17171094 L6.06582812,3.17171094 C4.60200781,3.17171094 3.41113281,4.36264063 3.41113281,5.82640625 L3.41113281,6.42928125 L1.06214062,8.02861719 C0.425796875,8.46185156 0.0459375,9.18011719 0.0459375,9.94989844 L0.0459375,26.2574922 C0.0459375,26.8253672 0.27496875,27.9998906 1.78833594,27.9998906 L25.5553047,27.9998906 C26.5161094,27.9998906 27.2977031,27.2182422 27.2977031,26.2574922 L27.2977031,9.94989844 C27.2977578,9.18011719 26.9177891,8.46190625 26.2815547,8.02872656 Z M26.4775,9.94989844 L26.4775,26.2574922 C26.4775,26.4389453 26.4240703,26.6077656 26.3332344,26.7506094 L16.5903828,15.5361719 L26.4312891,9.58010156 C26.4615312,9.69964844 26.4775,9.823625 26.4775,9.94989844 Z M12.6314453,1.14384375 C13.2635234,0.713671875 14.0802812,0.713671875 14.7121953,1.14384375 L17.6906406,3.17171094 L9.65310937,3.17171094 L12.6314453,1.14384375 Z M6.06588281,3.99191406 L21.2777578,3.99191406 C22.2893125,3.99191406 23.11225,4.81485156 23.11225,5.82640625 L23.11225,10.8609564 C23.11225,11.0875267 23.2958906,11.2710579 23.5223516,11.2710579 C23.7488672,11.2710579 23.9324531,11.087472 23.9324531,10.8609564 L23.9324531,7.42164063 C23.9324531,7.42164063 25.9585156,8.81075781 26.0199844,8.87025781 L15.8551641,15.0224375 C14.5084844,15.8355859 12.8352109,15.8356953 11.4906094,15.0236953 L4.23133594,10.579625 L4.23133594,5.82651563 C4.23133594,4.81490625 5.05432812,3.99191406 6.06588281,3.99191406 Z M3.41113281,7.42158594 L3.41113281,10.0774297 L1.369375,8.8274375 C1.41788281,8.78434375 3.41113281,7.42158594 3.41113281,7.42158594 Z M1.73944531,27.1772813 L3.19385938,25.5072344 C3.34260938,25.3363906 3.32478125,25.0773906 3.1539375,24.9285859 C2.98314844,24.7798359 2.72409375,24.7977734 2.57528906,24.9685078 L1.01565625,26.7593047 C0.921429688,26.6147109 0.866085938,26.4425547 0.866085938,26.2574375 L0.866085938,9.94989844 C0.866085938,9.80224219 0.888179688,9.65770313 0.929304688,9.51983594 L10.7785234,15.5495156 L2.27798141,25.354846 C2.12923141,25.5256898 2.14705954,25.7846898 2.31790329,25.9334945 C2.39561422,26.0011429 2.66358297,26.1119945 2.89655172,25.8935726 L11.5066875,15.9623516 C12.1925234,16.2892188 12.9320078,16.4528984 13.6717656,16.4528984 C14.4207656,16.4528984 15.1697656,16.2846797 15.8629844,15.9495 L25.6168281,27.1766797 C25.596375,27.1779922 1.75574219,27.1781563 1.73944531,27.1772813 Z" id="Shape" fill="#000000" fill-rule="nonzero"></path>
                    </g>
                </g>
            </g>
        </g>
    </symbol>
</svg>