<svg xmlns="http://www.w3.org/2000/svg" xmlns:xlink="http://www.w3.org/1999/xlink" width="512" height="417" viewBox="0 0 512 417">
    <defs>
        <path id="a" d="M0 416h512V.193H0z"/>
    </defs>
    <g fill="none" fill-rule="evenodd">
        <path fill="#FFEDB1" d="M39.565 409.303h432.87v-272.55H39.565z"/>
        <g transform="translate(0 .807)">
            <path fill="#FFE17D" d="M39.565 200.575c9.376 3.507 19.477 5.517 30.06 5.517 23.712 0 46.104-9.903 62.125-26.508 16.022 16.605 38.413 26.508 62.125 26.508 23.712 0 46.104-9.903 62.125-26.508 16.023 16.605 38.413 26.508 62.125 26.508 23.712 0 46.104-9.903 62.125-26.508 16.023 16.605 38.413 26.508 62.125 26.508 10.584 0 20.684-2.01 30.06-5.517v-64.624H39.565v64.624z"/>
            <path fill="#DC4655" d="M504.5 119.92c0 34.31-27.814 62.124-62.125 62.124-24.839 0-46.273-14.577-56.214-35.643-2.423-5.135-9.398-5.135-11.821 0-9.941 21.066-31.376 35.643-56.214 35.643-24.838 0-46.273-14.577-56.214-35.643-2.423-5.135-9.398-5.135-11.821 0-9.941 21.066-31.376 35.643-56.214 35.643-24.838 0-46.273-14.577-56.214-35.643-2.423-5.135-9.398-5.135-11.821 0-9.941 21.066-31.376 35.643-56.214 35.643-34.311 0-62.125-27.814-62.125-62.125l59.51-104.148a16.033 16.033 0 0 1 13.92-8.078h350.134a16.034 16.034 0 0 1 13.92 8.078L504.5 119.92z"/>
            <path fill="#E6646E" d="M431.067 7.693H80.933a16.034 16.034 0 0 0-13.92 8.078L7.5 119.92h497L444.987 15.771a16.035 16.035 0 0 0-13.92-8.078"/>
            <mask id="b" fill="#fff">
                <use xlink:href="#a"/>
            </mask>
            <path fill="#FFF" d="M336.16 408.507h96.189V216.116H336.16zM79.64 368.427h216.44V216.116H79.64z" mask="url(#b)"/>
            <path fill="#FFF6D8" d="M193.247 240.161h-89.553v89.552zM117.31 344.37h26.464l104.21-104.209H221.52zM272.032 264.208l-80.16 80.161h80.16zM408.306 254.247v-14.086H360.21v62.182zM360.21 336.354v8.016h48.096v-56.113z" mask="url(#b)"/>
            <path fill="#000" d="M343.661 401h81.192v-25.081h-81.192V401zm.001-40.081h81.192V223.611h-81.192v137.308zM47.064 185.77a69.289 69.289 0 0 0 22.561 3.773c27.095 0 50.624-15.556 62.125-38.207 11.501 22.65 35.03 38.207 62.125 38.207s50.624-15.556 62.125-38.207c11.501 22.65 35.03 38.207 62.125 38.207s50.624-15.556 62.125-38.207c11.501 22.65 35.03 38.207 62.125 38.207 7.896 0 15.48-1.34 22.561-3.772v215.228h-25.081V216.112a7.5 7.5 0 0 0-7.5-7.5h-96.193a7.5 7.5 0 0 0-7.5 7.5v184.887H47.064V185.77zm200.908-58.351c-3.668 26.582-26.523 47.125-54.097 47.125s-50.429-20.543-54.097-47.125h108.194zm124.25 0c-3.668 26.582-26.523 47.125-54.097 47.125-27.575 0-50.429-20.543-54.097-47.125h108.194zm-356.705 0h24.044a7.5 7.5 0 0 0 0-15H20.424l53.101-92.927a8.551 8.551 0 0 1 7.408-4.299h350.134a8.55 8.55 0 0 1 7.408 4.299l53.1 92.927h-19.141a7.5 7.5 0 0 0-7.5 7.5 7.5 7.5 0 0 0 7.5 7.5h24.048c-3.667 26.584-26.532 47.125-54.108 47.125-27.575 0-50.429-20.543-54.097-47.125h84.096a7.5 7.5 0 0 0 7.5-7.5 7.5 7.5 0 0 0-7.5-7.5H41.631a7.5 7.5 0 0 0 0 15h82.091c-3.668 26.582-26.523 47.125-54.097 47.125-27.576 0-50.441-20.542-54.108-47.125zm472.951 273.58h-8.532V178.497C499.202 166.1 512 144.483 512 119.919a7.505 7.505 0 0 0-.988-3.721L451.499 12.05A23.587 23.587 0 0 0 431.067.193H80.933A23.585 23.585 0 0 0 60.501 12.05L.988 116.198A7.503 7.503 0 0 0 0 119.919c0 24.564 12.798 46.181 32.064 58.578V401h-8.532a7.5 7.5 0 0 0 0 15h464.936a7.501 7.501 0 0 0 0-15.001z" mask="url(#b)"/>
            <path fill="#000" d="M87.145 360.919h201.436V223.611H87.145v137.308zm208.936-152.307H79.645a7.5 7.5 0 0 0-7.5 7.5v152.307a7.5 7.5 0 0 0 7.5 7.5h216.436a7.5 7.5 0 0 0 7.5-7.5V216.112a7.5 7.5 0 0 0-7.5-7.5z" mask="url(#b)"/>
        </g>
    </g>
</svg>
