<svg xmlns="http://www.w3.org/2000/svg" width="40" height="40" viewBox="0 0 40 40">
    <g fill="none" fill-rule="evenodd">
        <g fill="#D8D6D4">
            <path d="M7.743 5.575H5.26c-.671 0-1.215-.565-1.215-1.263 0-.697.544-1.262 1.215-1.262h2.483c.671 0 1.216.565 1.216 1.262 0 .698-.545 1.263-1.216 1.263zM7.743 11.85H5.26c-.671 0-1.215-.565-1.215-1.262 0-.698.544-1.263 1.215-1.263h2.483c.671 0 1.216.565 1.216 1.263 0 .697-.545 1.262-1.216 1.262zM7.743 18.125H5.26c-.671 0-1.215-.565-1.215-1.262 0-.698.544-1.263 1.215-1.263h2.483c.671 0 1.216.565 1.216 1.263 0 .697-.545 1.262-1.216 1.262zM7.743 24.4H5.26c-.671 0-1.215-.565-1.215-1.263 0-.697.544-1.262 1.215-1.262h2.483c.671 0 1.216.565 1.216 1.262 0 .698-.545 1.263-1.216 1.263zM7.743 30.675H5.26c-.671 0-1.215-.565-1.215-1.263 0-.697.544-1.262 1.215-1.262h2.483c.671 0 1.216.565 1.216 1.262 0 .698-.545 1.263-1.216 1.263zM7.743 36.95H5.26c-.671 0-1.215-.565-1.215-1.262 0-.698.544-1.263 1.215-1.263h2.483c.671 0 1.216.565 1.216 1.263 0 .697-.545 1.262-1.216 1.262z"/>
        </g>
        <path fill="#FFF" d="M35.08 39H6.92a.92.92 0 0 1-.92-.922V.921A.92.92 0 0 1 6.92 0h28.16a.92.92 0 0 1 .92.921V38.08a.92.92 0 0 1-.92.921z"/>
        <path fill="#E5E5E5" d="M35.994 0H32v39h3.994c.556 0 1.006-.413 1.006-.921V.92C37 .413 36.55 0 35.994 0z"/>
        <path fill="#FFF" d="M22.746 9h-2.492l-.25-2.209c-.047-.423.311-.791.77-.791h1.452c.459 0 .817.368.77.791L22.746 9z"/>
        <path fill="#FA4616" d="M30 18H13v-.705C13 12.714 16.806 9 21.5 9s8.5 3.714 8.5 8.295V18z"/>
        <path fill="#D0340A" d="M21.366 9c-.82 0-1.614.11-2.366.316 3.618.988 6.268 4.186 6.268 7.98V18H30v-.705C30 12.714 26.134 9 21.366 9z"/>
        <path fill="#D8D6D4" d="M30.663 17H11.337a.344.344 0 0 0-.337.35v1.3c0 .193.151.35.337.35h19.326a.344.344 0 0 0 .337-.35v-1.3c0-.193-.15-.35-.337-.35z"/>
        <path fill="#000" d="M31.345 33h-3.69c-.362 0-.655.224-.655.5s.293.5.656.5h3.689c.362 0 .655-.224.655-.5s-.293-.5-.655-.5zM25.395 33h-13.79c-.334 0-.605.224-.605.5s.271.5.605.5h13.79c.334 0 .605-.224.605-.5s-.27-.5-.605-.5zM31.401 24H11.6c-.33 0-.599.224-.599.5s.268.5.599.5H31.4c.331 0 .599-.224.599-.5s-.268-.5-.599-.5zM31.401 27H11.6c-.33 0-.599.224-.599.5s.268.5.599.5H31.4c.331 0 .599-.224.599-.5s-.268-.5-.599-.5zM31.401 30H11.6c-.33 0-.599.224-.599.5s.268.5.599.5H31.4c.331 0 .599-.224.599-.5s-.268-.5-.599-.5z"/>
        <path fill="#000" fill-rule="nonzero" d="M31.068 16.888h-.581c-.225-4.143-3.24-7.552-7.188-8.359l.115-1.109a1.29 1.29 0 0 0-.322-.995A1.28 1.28 0 0 0 22.14 6h-1.28a1.282 1.282 0 0 0-1.274 1.42l.116 1.11a9.042 9.042 0 0 0-7.188 8.357h-.582a.935.935 0 0 0-.932.936v1.241c0 .516.418.936.932.936h19.136c.514 0 .932-.42.932-.936v-1.24a.935.935 0 0 0-.932-.936zM20.798 7.23a.08.08 0 0 1 .063-.027h1.279c.024 0 .045.009.062.027a.08.08 0 0 1 .021.065l-.112 1.074a9.076 9.076 0 0 0-1.222 0l-.112-1.074a.083.083 0 0 1 .021-.065zm10.004 11.568H12.198v-.708h2.524a.6.6 0 0 0 0-1.202h-1.008c.255-4.09 3.65-7.337 7.786-7.337 4.137 0 7.53 3.248 7.787 7.337H17.508a.6.6 0 0 0-.598.6.6.6 0 0 0 .598.602h13.294v.708z"/>
        <path fill="#000" fill-rule="nonzero" d="M35.467 0h-28.5c-.844 0-1.532.677-1.532 1.51v1.071h-.561C3.84 2.581 3 3.41 3 4.428s.84 1.846 1.874 1.846h.561V8.81h-.561C3.84 8.81 3 9.638 3 10.657c0 1.018.84 1.846 1.874 1.846h.561v2.536h-.561C3.84 15.04 3 15.867 3 16.886c0 1.018.84 1.846 1.874 1.846h.561v2.536h-.561C3.84 21.268 3 22.096 3 23.114c0 1.019.84 1.847 1.874 1.847h.561v2.536h-.561C3.84 27.497 3 28.325 3 29.343c0 1.019.84 1.847 1.874 1.847h.561v2.536h-.561C3.84 33.726 3 34.554 3 35.572c0 1.018.84 1.847 1.874 1.847h.561v1.071c0 .833.688 1.51 1.533 1.51h28.5c.844 0 1.532-.677 1.532-1.51V1.51C37 .677 36.312 0 35.467 0zM5.435 5.089h-.561a.666.666 0 0 1-.67-.661c0-.364.3-.66.67-.66h.561v1.32zm0 6.228h-.561a.666.666 0 0 1-.67-.66c0-.365.3-.66.67-.66h.561v1.32zm0 6.23h-.561a.666.666 0 0 1-.67-.661c0-.365.3-.661.67-.661h.561v1.321zm0 6.228h-.561a.666.666 0 0 1-.67-.66c0-.365.3-.661.67-.661h.561v1.321zm0 6.229h-.561a.666.666 0 0 1-.67-.66c0-.365.3-.661.67-.661h.561v1.32zm0 6.229h-.561a.666.666 0 0 1-.67-.66c0-.365.3-.661.67-.661h.561v1.32zm30.361 2.257a.327.327 0 0 1-.329.324h-28.5a.327.327 0 0 1-.328-.324V1.51c0-.179.147-.324.329-.324h28.5c.18 0 .328.145.328.324v36.98z"/>
    </g>
</svg>
