<svg xmlns="http://www.w3.org/2000/svg" width="24" height="24" viewBox="0 0 24 24">
    <g fill="none" fill-rule="evenodd">
        <path fill="#FFF" d="M20.846 9.458c0 7.081-7.788 13.64-7.788 13.64-.455.382-1.2.382-1.655 0 0 0-7.788-6.559-7.788-13.64 0-4.883 3.858-8.843 8.616-8.843 4.758 0 8.615 3.96 8.615 8.843z"/>
        <path fill="#4A90E2" d="M12.23 14.154c-2.375 0-4.307-2.07-4.307-4.616 0-2.544 1.933-4.615 4.308-4.615s4.307 2.07 4.307 4.615c0 2.545-1.932 4.616-4.307 4.616z"/>
        <g fill="#11113F" fill-rule="nonzero">
            <path d="M12.23 0C7.156 0 3.027 4.227 3.027 9.423c0 1.702.43 3.509 1.275 5.37.668 1.469 1.597 2.977 2.76 4.483 1.974 2.552 3.92 4.196 4.001 4.264.328.276.748.413 1.169.413.42 0 .841-.137 1.169-.413.082-.068 2.027-1.712 4-4.264 1.164-1.506 2.093-3.014 2.76-4.483.846-1.861 1.275-3.668 1.275-5.37C21.435 4.227 17.306 0 12.231 0zm4.353 18.586c-1.903 2.465-3.836 4.1-3.855 4.116-.265.223-.73.223-.995 0-.019-.016-1.951-1.651-3.855-4.116-1.73-2.242-3.793-5.651-3.793-9.163 0-4.598 3.654-8.34 8.146-8.34 4.491 0 8.146 3.742 8.146 8.34 0 3.512-2.063 6.92-3.794 9.163z"/>
            <path d="M12.23 4.413c-2.698 0-4.893 2.248-4.893 5.01 0 2.763 2.195 5.01 4.894 5.01 2.698 0 4.894-2.247 4.894-5.01 0-2.762-2.196-5.01-4.894-5.01zm0 8.937c-2.114 0-3.834-1.762-3.834-3.927s1.72-3.926 3.835-3.926 3.835 1.761 3.835 3.926-1.72 3.927-3.835 3.927z"/>
        </g>
    </g>
</svg>
